<svg width="320.000000" height="320.000000" viewBox="0 0 320 320" fill="none" xmlns="http://www.w3.org/2000/svg" xmlns:xlink="http://www.w3.org/1999/xlink">
	<desc>
			Created with Pixso.
	</desc>
	<defs>
		<filter id="filter_1_699_dd" x="82.368408" y="118.157959" width="155.263184" height="50.000000" filterUnits="userSpaceOnUse" color-interpolation-filters="sRGB">
			<feFlood flood-opacity="0" result="BackgroundImageFix"/>
			<feColorMatrix in="SourceAlpha" type="matrix" values="0 0 0 0 0 0 0 0 0 0 0 0 0 0 0 0 0 0 127 0" result="hardAlpha"/>
			<feOffset dx="0" dy="0"/>
			<feGaussianBlur stdDeviation="5.66667"/>
			<feComposite in2="hardAlpha" operator="out" k2="-1" k3="1"/>
			<feColorMatrix type="matrix" values="0 0 0 0 0 0 0 0 0 0 0 0 0 0 0 0 0 0 0.1 0"/>
			<feBlend mode="normal" in2="BackgroundImageFix" result="effect_dropShadow_1"/>
			<feBlend mode="normal" in="SourceGraphic" in2="effect_dropShadow_1" result="shape"/>
		</filter>
		<filter id="filter_1_700_dd" x="82.368408" y="158.157959" width="155.263184" height="50.000000" filterUnits="userSpaceOnUse" color-interpolation-filters="sRGB">
			<feFlood flood-opacity="0" result="BackgroundImageFix"/>
			<feColorMatrix in="SourceAlpha" type="matrix" values="0 0 0 0 0 0 0 0 0 0 0 0 0 0 0 0 0 0 127 0" result="hardAlpha"/>
			<feOffset dx="0" dy="0"/>
			<feGaussianBlur stdDeviation="5.66667"/>
			<feComposite in2="hardAlpha" operator="out" k2="-1" k3="1"/>
			<feColorMatrix type="matrix" values="0 0 0 0 0 0 0 0 0 0 0 0 0 0 0 0 0 0 0.1 0"/>
			<feBlend mode="normal" in2="BackgroundImageFix" result="effect_dropShadow_1"/>
			<feBlend mode="normal" in="SourceGraphic" in2="effect_dropShadow_1" result="shape"/>
		</filter>
		<filter id="filter_1_701_dd" x="82.368408" y="198.157959" width="106.842041" height="50.000000" filterUnits="userSpaceOnUse" color-interpolation-filters="sRGB">
			<feFlood flood-opacity="0" result="BackgroundImageFix"/>
			<feColorMatrix in="SourceAlpha" type="matrix" values="0 0 0 0 0 0 0 0 0 0 0 0 0 0 0 0 0 0 127 0" result="hardAlpha"/>
			<feOffset dx="0" dy="0"/>
			<feGaussianBlur stdDeviation="5.66667"/>
			<feComposite in2="hardAlpha" operator="out" k2="-1" k3="1"/>
			<feColorMatrix type="matrix" values="0 0 0 0 0 0 0 0 0 0 0 0 0 0 0 0 0 0 0.1 0"/>
			<feBlend mode="normal" in2="BackgroundImageFix" result="effect_dropShadow_1"/>
			<feBlend mode="normal" in="SourceGraphic" in2="effect_dropShadow_1" result="shape"/>
		</filter>
		<linearGradient x1="160.000000" y1="0.000000" x2="160.000000" y2="320.000000" id="paint_linear_1_692_0" gradientUnits="userSpaceOnUse">
			<stop stop-color="#399CFF"/>
			<stop offset="1.000000" stop-color="#55C0F2"/>
		</linearGradient>
		<linearGradient x1="239.097900" y1="43.287941" x2="200.013062" y2="96.087715" id="paint_linear_1_693_0" gradientUnits="userSpaceOnUse">
			<stop stop-color="#378EE6" stop-opacity="0.800000"/>
			<stop offset="0.999153" stop-color="#399CFF" stop-opacity="0.000000"/>
		</linearGradient>
		<linearGradient x1="215.477356" y1="65.086060" x2="243.141876" y2="38.073982" id="paint_linear_1_694_0" gradientUnits="userSpaceOnUse">
			<stop stop-color="#84D7FB" stop-opacity="0.901961"/>
			<stop offset="1.000000" stop-color="#67CBFF" stop-opacity="0.501961"/>
		</linearGradient>
	</defs>
	<path id="矩形备份 113" d="M56.84 0L199.92 0C203.1 0 206.15 1.26 208.4 3.5L276.47 71.48C278.73 73.73 280 76.79 280 79.97L280 303.15C280 312.45 272.45 320 263.15 320L56.84 320C47.54 320 40 312.45 40 303.15L40 16.84C40 7.54 47.54 0 56.84 0Z" fill="url(#paint_linear_1_692_0)" fill-opacity="1.000000" fill-rule="evenodd"/>
	<path id="矩形备份 113" d="" fill="#000000" fill-opacity="0" fill-rule="evenodd"/>
	<path id="矩形备份 136" d="M56.84 0L199.92 0C203.1 0 206.15 1.26 208.4 3.5L276.47 71.48C278.73 73.73 280 76.79 280 79.97L280 303.15C280 312.45 272.45 320 263.15 320L56.84 320C47.54 320 40 312.45 40 303.15L40 16.84C40 7.54 47.54 0 56.84 0Z" fill="url(#paint_linear_1_693_0)" fill-opacity="1.000000" fill-rule="evenodd"/>
	<path id="形状结合" d="M206.579 1.35669L206.683 1.46045C206.64 1.42249 206.597 1.38489 206.553 1.34766L206.579 1.35669ZM210.664 10.2484C210.664 10.4044 210.661 10.5598 210.655 10.7145L210.655 52.9218C210.655 61.7583 217.818 68.9218 226.655 68.9218L269.153 68.9218C273.002 68.9218 276.42 70.786 278.553 73.66C277.973 72.7509 277.292 71.9015 276.518 71.1294L207.734 2.5083C209.557 4.57178 210.664 7.2821 210.664 10.2484Z" clip-rule="evenodd" fill="url(#paint_linear_1_694_0)" fill-opacity="1.000000" fill-rule="evenodd"/>
	<g filter="url(#filter_1_699_dd)">
		<path id="直线" d="M107.36 143.15L212.63 143.15" stroke="#FFFFFF" stroke-opacity="1.000000" stroke-width="16.000000" stroke-linejoin="round" stroke-linecap="round"/>
	</g>
	<g filter="url(#filter_1_700_dd)">
		<path id="直线备份" d="M107.36 183.15L212.63 183.15" stroke="#FFFFFF" stroke-opacity="1.000000" stroke-width="16.000000" stroke-linejoin="round" stroke-linecap="round"/>
	</g>
	<g filter="url(#filter_1_701_dd)">
		<path id="直线备份 2" d="M107.36 223.15L164.21 223.15" stroke="#FFFFFF" stroke-opacity="1.000000" stroke-width="16.000000" stroke-linejoin="round" stroke-linecap="round"/>
	</g>
</svg>
